<svg id="_x31__px" enable-background="new 0 0 24 24" height="512" viewBox="0 0 24 24" width="512" xmlns="http://www.w3.org/2000/svg"><path d="m18.5 24h-14c-1.378 0-2.5-1.122-2.5-2.5v-17c0-1.378 1.122-2.5 2.5-2.5h14c1.378 0 2.5 1.122 2.5 2.5v17c0 1.378-1.122 2.5-2.5 2.5zm-14-21c-.827 0-1.5.673-1.5 1.5v17c0 .827.673 1.5 1.5 1.5h14c.827 0 1.5-.673 1.5-1.5v-17c0-.827-.673-1.5-1.5-1.5z"/><path d="m6.5 5c-.276 0-.5-.224-.5-.5v-4c0-.276.224-.5.5-.5s.5.224.5.5v4c0 .276-.224.5-.5.5z"/><path d="m12 5c-.276 0-.5-.224-.5-.5v-4c0-.276.224-.5.5-.5s.5.224.5.5v4c0 .276-.224.5-.5.5z"/><path d="m16.5 5c-.276 0-.5-.224-.5-.5v-4c0-.276.224-.5.5-.5s.5.224.5.5v4c0 .276-.224.5-.5.5z"/><path d="m17.5 18h-11c-.276 0-.5-.224-.5-.5s.224-.5.5-.5h11c.276 0 .5.224.5.5s-.224.5-.5.5z"/><path d="m17.5 14h-11c-.276 0-.5-.224-.5-.5s.224-.5.5-.5h11c.276 0 .5.224.5.5s-.224.5-.5.5z"/><path d="m12.5 10h-6c-.276 0-.5-.224-.5-.5s.224-.5.5-.5h6c.276 0 .5.224.5.5s-.224.5-.5.5z"/></svg>